<svg xmlns="http://www.w3.org/2000/svg" width="16" height="16"><mask id="inner"><path d="m1.5 1.69 2.49.83H14.5v11.8l-2.74-.85H1.5" fill="white"/></mask><mask id="outer"><path d="m1 1 3 1 8-1 3 1v13l-3.25-1-7.5 1-3.25-1z" fill="white" stroke="white" stroke-linejoin="round"/></mask><path d="m1 1 3 1 8-1 3 1v13l-3.25-1-7.5 1-3.25-1z" fill="#fff0ac" stroke="#ffe880" stroke-linejoin="round"/><g mask="url(#inner)"><path d="m-.5 3L5.5 9l6.5-2 3.5 4.5" stroke="#5ce65c" stroke-linecap="round" stroke-width="3" transform="translate(0.5 -2)" stroke-linejoin="round" fill="none"/><path d="m.5 4L5.5 9l6.5-2 4.5 5.5" stroke="#ff8080" stroke-linecap="round" stroke-width="3" transform="translate(-0.5 2)" stroke-linejoin="round" fill="none"/><path d="m0 3.5L5.5 9l6.5-2 4 5" stroke="white" stroke-linecap="round" stroke-width="3" fill="none" stroke-linejoin="round"/></g><g mask="url(#outer)" fill-opacity="0.2"><path d="m11.75 0h4.25v16h-4.25z"/><path d="m0 0h4.25v16h-4.25z"/></g><g><path d="m8.5 12-1.5 1.5v-5l3.5 3.5z" stroke="#333" stroke-linejoin="round"/><path d="m8.5 12-1.5 1.5v-5l3.5 3.5z" fill="white"/></g></svg>